<svg xmlns="http://www.w3.org/2000/svg" version="1.0" viewBox="512 512 1024 1024"><path d="M512 1024v512h1024V512H512zm543-294.5c85.4 10.4 160.4 59.5 204.8 134 20.1 33.9 34.4 79.1 36.9 117.2l.6 9.3h-82.6c-45.5 0-82.7-.2-82.7-.4s2-1.6 4.4-3c20.1-11.8 42.4-34 52.9-52.8 19.3-34.6 17.9-70-4.1-103.2-6.4-9.7-21.9-25-32.3-31.8-10.1-6.7-21.5-12.5-22.5-11.5-.4.4 3.5 4.9 8.7 9.9 16.5 16.2 26.4 31.4 32.4 49.8 2.5 7.6 2.8 10 2.9 22 0 12-.3 14.3-2.6 20.7-5.6 15.6-15.7 27.5-29.1 34.2-9.7 4.8-16.5 6.1-32.9 6.1h-11.7l2.5-5.6c9.5-21.5 9.1-45.1-1-65.1-9.3-18.5-26.3-33.6-45.4-40.3-35.6-12.6-76.5.5-97.2 30.9-9.4 13.9-13.1 26.1-13.1 43.1 0 12.1 1.8 21 6.2 30.7l2.8 6.3h-13.2c-22.3 0-32.6-3.9-45.8-17-5.6-5.6-8.5-9.4-11.2-15-14.7-30.4-4.6-66.7 27.6-99.3 5.9-6 10.5-11.2 10.3-11.5-1.2-1.1-10.5 3.5-20.3 10.1-18.6 12.4-33.3 28.8-42.4 47.2-19.3 39.2-9.6 82.9 26.4 118.3 10.1 10.1 12.3 11.8 26.7 21.9l7.4 5.3H754v-4.9c0-2.8.7-10.1 1.5-16.4 8.2-62.3 34.3-115.6 77.9-159.2 23.4-23.4 42-37.2 69-51.1 28-14.4 53.4-22.7 83.6-27.3 17.4-2.7 18.2-2.7 39-2.9 10.6-.1 22.5.4 30 1.3m-19 119.7c7.9 2.5 15.5 9.1 19.8 17.3 2.3 4.3 2.7 6.2 2.7 13.5 0 10.8-2.6 16.9-10 23.9-6.5 6.1-11 8.1-20 8.8-14.5 1.1-25.9-5.3-32.5-18.2-3.1-6-3.5-7.7-3.5-14.4 0-6.3.5-8.6 2.7-13.2 7.7-15.7 24.2-22.8 40.8-17.7M999.9 943l13.4 7.5 4.4 18.3 4.5 18.3 3.1-.3 3.1-.3 4.5-18.1 4.4-18.1 15.1-8.4c8.3-4.5 17.7-9.7 20.9-11.6 5.6-3.2 5.7-3.2 5.7-1 0 1.2-1.8 8.3-3.9 15.7-14.4 49.9-18.1 58.6-28.9 66.5-6.3 4.6-12.2 6.5-20.3 6.5-9.5 0-16.5-2.8-23.8-9.5-7.6-7.1-10.8-13.4-17.6-34.9-4.8-15.4-13.5-45.1-13.5-46.3 0-.4 9.1 4.5 28.9 15.7m-191.6 63.6c36.9 3.6 75.3 14.6 104.7 30 24.4 12.8 53 34.6 82.9 63l5.4 5.1 3.7 22c6.8 40 11.3 73.5 16.6 123.4.5 5.4.7 5.7 3.5 6.1 1.7.3 3.1.2 3.3-.1s.9-4.9 1.5-10.1c3.7-32.9 6.6-55.7 8.7-71 3.1-21.4 10.3-67.9 11-70.2.3-.9 5.9-6.4 12.5-12.3s12.5-11.2 13.2-11.9c.6-.7 7.3-6.1 14.7-12.1 43.3-34.8 87.4-53.5 144-61 10.6-1.4 43.7-3.4 57.3-3.5h5.7v9.5c0 26.5-7.6 62.6-19.5 93.3-9.6 24.4-26.5 53.5-43.2 74.2-37.1 46-96.2 82.5-153.3 94.5-23.5 4.9-55.9 6.8-79.6 4.6-59.6-5.6-113.5-30.1-159.1-72.3-34.8-32.1-59.9-72.3-75.1-119.9-4.3-13.6-9.3-34.7-11.1-46.9-.9-6.2-3.1-31.4-3.1-35.8 0-1.6 33.4-.7 55.3 1.4m98.4 352.8c7.8 16.5 8.5 20.1 4.4 20.1-1.7 0-2.9-.9-4-3.2-1.6-3.2-1.6-3.3-9.3-3.3-6 0-7.8.3-7.8 1.4 0 .8-.8 2.4-1.8 3.6-1.5 1.8-2.5 2.2-4.5 1.6-2.4-.6-2.6-1-2.1-3.4.4-1.5 1.3-3.8 2-5.2.8-1.4 4.1-8.3 7.4-15.3 3.3-7.3 6.5-12.7 7.1-12.5s4.5 7.5 8.6 16.2m154-5.5c2.4 5.3 5.8 12.2 7.4 15.4 3.6 6.9 3.5 10.1-.1 10.4-1.9.2-3.1-.6-5.2-3.6q-2.7-3.9-4.5-3.6c-1 .2-3.8.4-6.3.5-3.9.1-4.8.5-6.5 3.3-2.2 3.5-5.5 4.6-7.4 2.4-.9-1.2.3-4.6 6.4-17.2 8.1-17 9.2-18.8 10.7-17.9.6.4 3 5 5.5 10.3m-183.1-7.3c.8 3.2-.7 4.4-5.8 4.4h-3.7l-.3 14.2-.3 14.3-2.7.3c-3.5.4-3.7-.7-4.1-16.3l-.2-12-3.9-.5c-4.6-.6-6.7-3-4.7-5.4 1.1-1.3 3.6-1.6 13.2-1.6H877zm63-.3c1.9 1.7 2.5 2.9 2 4.4-1 3.1-3.3 3.5-6.5 1.2-3.2-2.4-6.1-1.7-6.1 1.6 0 1.8 1.2 2.9 5.5 5 3 1.4 6.2 3.6 7 4.8 1.7 2.5 2 8.9.5 11.8-1.4 2.6-6.2 4.9-10.2 4.9-6.8 0-13-6.7-9.8-10.5 1.8-2.1 3-1.9 6.1 1.1 2.1 2.1 3.4 2.5 5.4 2 2.1-.5 2.6-1.2 2.3-3.4-.2-2.2-1.4-3.3-6.3-5.7-3.4-1.7-6.5-4.1-7.3-5.5-1.9-3.7-.8-9.1 2.5-11.7 3.9-3.2 11.2-3.2 14.9 0m20-1c.3.8.8 4.2 1.2 7.6l.7 6.3 6.5-7.5c5.5-6.5 7-7.6 9.8-7.6 3.9-.1 4.4 2.5 1.1 5.5-1.2 1-3.9 4-6.1 6.7l-4 4.7 3.8 4.6c8.1 9.5 9.5 11.6 8.3 13-2.5 3.1-5.7 1.6-11-5.1-6.4-8.2-8.9-8.7-8.9-1.7 0 5.5-1.8 8.6-4.6 8-2.7-.5-3.4-6-2.7-22.1.6-13.6.6-13.7 3-13.7 1.3 0 2.6.6 2.9 1.3m42.3 7.3c3.5 4.7 6.9 8.3 7.5 8.1s3.7-3.9 6.8-8.3c4.3-6 6.2-7.9 8-7.9h2.3l.3 17.2.2 17.3-2.6.6c-3.7.9-4.4-.7-4.4-10.5v-8.4l-5.5 5.9-5.5 5.9-5.5-5.8-5.5-5.7v7.9c0 4.4-.3 8.6-.6 9.5-.8 2.1-5 2.1-5.8 0-.3-.9-.6-9-.6-18 0-16.4 0-16.4 2.3-16.4 1.6.1 4 2.4 8.6 8.6m93.6-6.2c2.4 2 2.8 2.8 1.9 4.2-1.9 3.3-4.4 4.1-5.9 2.1-1.9-2.6-7-2-7 .8 0 1.4 1.6 2.7 5.6 4.6 6.4 3.1 8.9 6.3 8.9 11.6-.1 10.6-14.6 14.2-21.2 5.3-3.8-5.2 1.4-9.2 5.8-4.5 2.7 2.9 6 3.1 7.7.4s.1-4.8-5.6-7.3c-3-1.3-6.2-3.4-7.1-4.7-2.6-3.7-2.1-8.6 1.3-12 3.9-3.9 11.1-4.1 15.6-.5m34-.4c1 3.1-1.2 5-5.6 5h-3.8l-.3 14.2c-.3 14-.4 14.3-2.5 14.6-3.3.5-4.5-3.6-4.2-13.8.4-14.5.3-15-3-15-4.7 0-6.1-1-6.1-4.1v-2.9h12.4c11.7 0 12.5.1 13.1 2m30 1.5v3l-7.7.3-7.8.3v6.8l6.3.3c5.9.3 6.2.4 6.5 2.9.4 3-1.5 3.9-8.6 3.9h-4.3l.3 3.7.3 3.8 6.4.2c8.2.3 9.1.7 9.1 3.7 0 3.1-1.5 3.6-11.5 3.6-11.4 0-11.5-.1-11.5-14.9 0-6.5.3-13.9.6-16.5l.7-4.7 10.6.3 10.6.3zm30.5-2c6.7 3.5 8.2 11.9 3.1 17.8l-3 3.3 3 4.5c3.3 4.9 3.7 7.4 1.3 8.3-3.2 1.2-4.4.5-8-5.4-3.2-5.2-4.1-6.1-6.3-5.8s-2.6.7-2.3 3.4c.4 4.8-1.4 8.6-4 8.2-3.2-.4-3.8-4.8-3.1-21.6l.6-14.2h7.9c5.1 0 8.9.5 10.8 1.5"></path><path d="M1024.7 747.7c-.2.4-.8 2.4-1.2 4.3-.9 4-4.6 11.5-7.2 14.5-3.1 3.5-7.6 6.3-13.6 8.3-3.2 1-5.8 2.3-5.8 2.8 0 .4 1.7 1.3 3.8 1.9 6.4 1.9 11.8 5.2 15.3 9.1 3.7 4.3 8 12.8 8 16.1 0 1.4.6 2.3 1.5 2.3.8 0 1.5-.7 1.5-1.5 0-3.4 4.5-13.1 7.8-16.7 3.6-4 9.5-7.5 16.5-9.7 3.5-1.2 4.3-3.1 1.2-3.1-.8 0-3.9-.9-7-2.1-8.6-3.2-14.5-10.2-17.6-20.9-1.4-4.9-2.4-6.6-3.2-5.3m-243.1 292c1 7.6 5.2 28 7.5 35.7 11.4 38.9 31 73.3 58.5 102.5 33.4 35.5 73.5 59.5 118.9 71.1 15.2 3.9 33.9 6.9 35.2 5.7 1.6-1.7-17.2-39.8-29.3-59.4-39.1-63.4-95.2-114.2-163.5-148.4-15.3-7.6-24.9-11.9-26.9-11.9-.6 0-.7 2-.4 4.7m472.4 1.7c-54.9 25.8-97.9 57.3-134 98.3-22.8 25.9-40.7 52.3-56.7 83.3-6.4 12.5-14.3 29.9-14.3 31.6 0 1.2 13.4-.5 25.8-3.1 44.1-9.6 87.1-32.7 119.6-64.4 39.3-38.4 64.5-85.8 73.1-137.1.8-5.2 1.8-10.7 2.1-12.3.4-1.9.1-2.7-.8-2.7-.7 0-7.4 2.9-14.8 6.4m-397.4 3.1c-.4 1 3.1 3.9 11.7 9.7 39.5 26.7 75.6 61.1 100.7 95.8 4.1 5.6 8.9 11.8 10.5 13.7 2.8 3.1 3.2 3.3 5 1.9 1.9-1.4 1.9-1.5.3-5-3-6.1-14.2-22.6-23.4-34.1-4.8-6.1-16.6-18.9-26.3-28.5-22.3-22.2-39-35.1-63.5-49-10.9-6.2-14-7.1-15-4.5m318.4 7c-36.1 21.5-69.6 52.6-95.6 88.5-9.8 13.6-14.4 21.1-14.4 23.3 0 .8.7 2 1.5 2.7 2.1 1.7 2.9.9 13.2-13.3 21.8-30.2 47.4-56.6 78.8-81.2 8.2-6.4 27.6-19.7 34.9-24 2.3-1.4 1-4.5-1.8-4.5-1.3 0-8.7 3.8-16.6 8.5m-278 306.8c0 .2-.7 2.1-1.5 4.1l-1.5 3.6h7.9l-1.3-3.7c-.7-2-1.8-3.9-2.4-4.1-.7-.2-1.2-.2-1.2.1m156.1 1.2c-.6 1.6-1.6 3.8-2.1 4.7-.9 1.6-.5 1.8 3 1.8 4.6 0 4.8-.8 2-6l-1.8-3.5zm125.9-3.5v5.1l3.8-.5c5.9-.7 7.2-1.6 7.2-4.5 0-3.8-1.7-5.1-6.7-5.1h-4.3z"></path></svg>